<svg width="164" height="53" viewBox="0 0 164 53" fill="none" xmlns="http://www.w3.org/2000/svg">
<path d="M10.3897 0.21295C9.94357 0.55382 9.07313 1.39998 8.71445 1.8411C7.79151 2.98001 6.86858 4.56406 6.59301 5.49443C6.26058 6.60126 6.14248 8.34972 6.32181 9.47259C6.60176 11.2371 7.236 12.4522 8.49137 13.6152C9.20872 14.2809 9.78173 14.6217 10.3897 14.742C10.7747 14.8142 11.6189 14.8142 12.0169 14.738C12.3143 14.6779 12.3406 14.6819 12.4106 14.746C12.4499 14.7861 12.7211 15.0629 13.0098 15.3596C13.2985 15.6564 13.7141 16.0614 13.9284 16.2579L14.3264 16.6148L14.9082 16.5707C15.2275 16.5466 15.6605 16.5146 15.8705 16.5025C16.2467 16.4825 16.251 16.4825 16.3954 16.6028C16.6228 16.7953 17.0559 16.8193 17.3008 16.6509C17.7339 16.3582 17.7514 15.8208 17.3358 15.5681C17.139 15.4478 16.9596 15.4358 16.3866 15.512C16.2073 15.5361 15.8311 15.5681 15.5512 15.5802L15.0438 15.6123L14.5889 15.135C14.3396 14.8704 13.9196 14.4413 13.6528 14.1806C13.1804 13.7074 12.3406 12.8612 11.3564 11.8507C10.0004 10.4591 9.87796 10.3187 9.3487 9.53675C8.57448 8.38581 8.38202 7.74016 8.38202 6.30049C8.38202 5.49042 8.38202 5.47037 8.26829 5.27788C8.02334 4.8568 8.09333 4.43172 8.43451 4.29136C8.79756 4.13897 9.12562 4.21116 9.30058 4.47182C9.46242 4.71243 9.42743 4.96909 9.16936 5.37412C9.095 5.49042 9.08188 5.58667 9.08188 5.93957C9.08188 6.17617 9.11249 6.51704 9.14749 6.70151C9.23497 7.15868 9.57178 8.22139 9.72924 8.54622C10.0223 9.13974 10.6784 10.0059 11.4264 10.7879C11.7151 11.0887 12.2925 11.6943 12.7124 12.1314C13.5916 13.0537 14.5758 13.9681 15.0132 14.2688C15.4287 14.5536 16.2423 14.9265 16.7847 15.0789C18.1888 15.4719 18.8755 15.7767 19.7328 16.3822C20.3539 16.8234 21.185 17.6214 21.4825 18.0625C21.5218 18.1227 21.5962 18.1227 22.2042 18.0866C22.576 18.0625 23.0746 18.0344 23.3108 18.0224C23.827 17.9943 23.8226 17.9983 23.5208 17.485C23.1096 16.7953 22.5672 16.1897 21.7887 15.5601C20.5595 14.5656 19.1729 13.7916 17.3489 13.0778C15.8574 12.4963 14.5583 11.7023 13.6747 10.8401C12.9311 10.1142 12.4412 9.50467 11.8069 8.52216C10.4641 6.44887 10.0835 3.42916 10.7965 0.517727C10.8578 0.285133 10.8928 0.0725918 10.884 0.0485287C10.849 -0.0517254 10.6609 0.00842667 10.3897 0.21295Z" fill="#FFB208"/>
<path d="M52.681 0.0485268C52.6722 0.072588 52.7072 0.285131 52.7685 0.517725C53.2759 2.59102 53.2409 4.68837 52.6635 6.52506C52.3923 7.39929 52.1736 7.88052 51.758 8.52216C50.6514 10.2385 49.641 11.2491 48.1232 12.1594C47.5239 12.5204 46.9903 12.773 46.2161 13.0778C44.392 13.7916 43.0055 14.5656 41.7763 15.5601C40.9977 16.1897 40.4554 16.7953 40.0442 17.485C39.7424 17.9983 39.738 17.9943 40.2585 18.0224C40.4903 18.0344 40.989 18.0625 41.3608 18.0866C41.9688 18.1227 42.0432 18.1227 42.0825 18.0625C42.38 17.6214 43.211 16.8233 43.8322 16.3822C44.6895 15.7767 45.3762 15.4719 46.7803 15.0789C47.3227 14.9265 48.1363 14.5536 48.5518 14.2688C48.9892 13.9681 49.9734 13.0537 50.8526 12.1314C51.2725 11.6943 51.8499 11.0887 52.1386 10.7879C52.8866 10.0059 53.5427 9.13974 53.8357 8.54622C53.9932 8.22139 54.33 7.15868 54.4175 6.70151C54.4525 6.51704 54.4831 6.17617 54.4831 5.93957C54.4831 5.58667 54.47 5.49042 54.3956 5.37412C54.1376 4.96909 54.1026 4.71243 54.2644 4.47182C54.4394 4.21115 54.7674 4.13897 55.1305 4.29136C55.4717 4.43172 55.5416 4.8568 55.2967 5.27788C55.183 5.47037 55.183 5.49042 55.183 6.30049C55.183 7.74016 54.9905 8.38581 54.2163 9.53675C53.687 10.3187 53.5646 10.4591 52.2086 11.8507C51.2244 12.8612 50.3846 13.7074 49.9122 14.1806C49.6454 14.4413 49.2254 14.8704 48.9761 15.135L48.5212 15.6123L48.0138 15.5802C47.7339 15.5681 47.3577 15.5361 47.1784 15.512C46.6053 15.4358 46.426 15.4478 46.2292 15.5681C45.8136 15.8208 45.8311 16.3582 46.2642 16.6509C46.5091 16.8193 46.9422 16.7953 47.1696 16.6028C47.314 16.4825 47.3183 16.4825 47.6945 16.5025C47.9045 16.5146 48.3375 16.5466 48.6568 16.5707L49.2386 16.6148L49.6366 16.2579C49.8509 16.0614 50.2665 15.6564 50.5552 15.3596C50.8439 15.0629 51.1151 14.7861 51.1544 14.746C51.2244 14.6819 51.2507 14.6779 51.5481 14.738C51.9461 14.8142 52.7903 14.8142 53.1753 14.742C53.7833 14.6217 54.3563 14.2809 55.0736 13.6152C56.329 12.4522 56.9632 11.2371 57.2432 9.47258C57.4225 8.34972 57.3044 6.60126 56.972 5.49443C56.6964 4.56405 55.7735 2.98001 54.8462 1.83709C54.4919 1.39998 53.4814 0.425489 53.1053 0.160814C52.8822 0.000404358 52.7116 -0.0437088 52.681 0.0485268Z" fill="#FFB208"/>
<path d="M25.3965 21.7923C25.7027 22.1212 26.0964 22.5944 26.0964 22.6265C26.0964 22.6465 26.0745 22.6987 26.0526 22.7388M25.3965 21.7923L17.195 20.3246L18.0567 21.1627M25.3965 21.7923C25.3046 21.6881 25.1341 21.6801 22.1947 21.6159M25.3965 21.7923L17.9911 19.2499M26.0526 22.7388C26.009 22.8148 25.9043 22.815 22.9373 22.8189L22.9208 22.819M26.0526 22.7388L25.9883 22.7018C25.9884 22.7017 25.9885 22.7016 25.9886 22.7015C25.9899 22.7001 25.991 22.6993 25.9912 22.6992C25.9912 22.6992 25.9912 22.6992 25.9912 22.6992C25.9908 22.6994 25.99 22.6998 25.9888 22.7003M26.0526 22.7388L25.9873 22.7031C25.9874 22.703 25.9875 22.7028 25.9876 22.7027C25.9875 22.7028 25.9874 22.7029 25.9874 22.7029C25.9874 22.7029 25.9875 22.7027 25.9878 22.7023C25.9881 22.7016 25.9885 22.701 25.9888 22.7003M22.9208 22.819H19.8283M22.9208 22.819L22.9207 22.7446L22.9207 22.7446H19.8568M22.9208 22.819V22.7446L22.9344 22.7446C24.4176 22.7426 25.1849 22.7415 25.5871 22.7316C25.7902 22.7265 25.8953 22.7193 25.9517 22.7096C25.9739 22.7057 25.9844 22.7022 25.9888 22.7003M19.8283 22.819L19.3734 22.4099M19.8283 22.819V22.7446H19.8568M19.8283 22.819L19.878 22.7637L19.8568 22.7446M19.3734 22.4099C19.1197 22.1813 18.5291 21.6199 18.0567 21.1627M19.3734 22.4099L19.4231 22.3547M19.3734 22.4099L19.4231 22.3546L19.4231 22.3547M18.0567 21.1627L18.1086 21.1094L18.1085 21.1093M18.0567 21.1627L18.1085 21.1093M18.1085 21.1093C18.5809 21.5665 19.1706 22.1271 19.4231 22.3547M18.1085 21.1093L17.2469 20.2713L17.2249 20.2499L17.1943 20.2502L14.4605 20.2783L14.4604 20.2783C12.9501 20.2943 12.1746 20.3003 11.6489 20.2719C11.127 20.2437 10.8533 20.1818 10.3451 20.0598M19.4231 22.3547L10.3277 20.1321M19.4231 22.3547L19.8568 22.7446M19.4231 22.3547L6.29685 13.3093M10.3451 20.0598L10.3277 20.1321M10.3451 20.0598C10.3451 20.0598 10.3451 20.0598 10.3451 20.0598L10.3277 20.1321M10.3451 20.0598C9.1762 19.778 8.26405 19.2985 7.34552 18.4922M10.3277 20.1321C9.14669 19.8474 8.22376 19.3621 7.29644 18.5481M7.34552 18.4922C7.34554 18.4922 7.34556 18.4922 7.34558 18.4922L7.29644 18.5481M7.34552 18.4922C6.595 17.8319 6.07989 17.1968 5.60736 16.3543M7.34552 18.4922L7.29644 18.5481M7.29644 18.5481L5.60736 16.3543M5.60736 16.3543C5.60737 16.3543 5.60739 16.3543 5.6074 16.3543L5.54243 16.3906L5.60731 16.3542C5.60733 16.3542 5.60734 16.3542 5.60736 16.3543ZM5.60736 16.3543C5.0175 15.2965 4.64826 14.1625 4.44818 12.8028M5.60736 16.3543L4.37454 12.8134M4.44818 12.8028C4.44819 12.8029 4.4482 12.803 4.44821 12.8031L4.37454 12.8134M4.44818 12.8028C4.44816 12.8028 4.44815 12.8027 4.44814 12.8026L4.37454 12.8134M4.44818 12.8028C4.40292 12.4807 4.37455 11.9451 4.36855 11.4711C4.36556 11.2343 4.36816 11.0145 4.37687 10.8457C4.38123 10.7612 4.38706 10.6907 4.39425 10.6378C4.39786 10.6113 4.40165 10.5904 4.40542 10.575C4.40849 10.5625 4.41083 10.5567 4.41147 10.5551C4.41168 10.5545 4.4117 10.5545 4.41149 10.5548C4.42331 10.5359 4.43311 10.5226 4.44109 10.5139C4.44119 10.5138 4.44128 10.5137 4.44138 10.5136M4.37454 12.8134C4.28269 12.1598 4.26081 10.6559 4.3483 10.5156C4.45328 10.3471 4.51889 10.4153 4.68073 10.8765M4.44138 10.5136C4.44045 10.5125 4.43954 10.5115 4.43865 10.5105C4.43385 10.5053 4.43139 10.5039 4.4314 10.5039C4.4314 10.5039 4.43218 10.5043 4.43375 10.5048C4.44032 10.507 4.44739 10.506 4.45117 10.5044C4.45145 10.5043 4.45159 10.5042 4.45159 10.5042C4.45161 10.5042 4.44815 10.5062 4.44138 10.5136ZM4.44138 10.5136C4.45715 10.5319 4.47887 10.5682 4.50731 10.6321C4.53661 10.6979 4.57025 10.7863 4.61051 10.9011M4.61051 10.9011L4.68073 10.8765M4.61051 10.9011C4.91295 11.7655 5.45925 12.5373 6.29685 13.3093M4.61051 10.9011C4.61052 10.9011 4.61053 10.9011 4.61053 10.9011L4.68073 10.8765M4.68073 10.8765L6.29685 13.3093M6.29685 13.3093C6.2968 13.3092 6.29674 13.3092 6.29669 13.3091L6.34726 13.2546L6.29685 13.3093ZM6.29685 13.3093C7.09476 14.0488 7.9377 14.5912 8.89986 14.9837L8.92799 14.9148L8.89989 14.9837L9.33905 15.163M25.9888 22.7003C25.9979 22.6833 26.0069 22.6642 26.0136 22.6475C26.0151 22.6437 26.0164 22.6403 26.0176 22.6371M26.0176 22.6371C26.0175 22.637 26.0174 22.6369 26.0174 22.6368C26.0072 22.622 25.9917 22.6009 25.9712 22.5743C25.9303 22.5214 25.8722 22.4498 25.8042 22.3684C25.6681 22.2058 25.4941 22.0063 25.3421 21.843L25.3407 21.8415C25.3336 21.8335 25.3276 21.8282 25.3179 21.823C25.3069 21.8171 25.2884 21.8098 25.2549 21.8025C25.1866 21.7875 25.0703 21.7749 24.8593 21.7634C24.4393 21.7404 23.6635 21.7224 22.1931 21.6903L22.1947 21.6159M26.0176 22.6371C26.0191 22.6329 26.0202 22.6293 26.0211 22.6263C26.022 22.6231 26.0222 22.6217 26.0223 22.6217C26.0223 22.6217 26.022 22.6235 26.022 22.6265C26.022 22.6348 26.0234 22.641 26.0242 22.6438C26.025 22.647 26.0259 22.6493 26.0263 22.6503C26.0272 22.6523 26.0276 22.6529 26.0269 22.6516C26.0255 22.6492 26.0226 22.6445 26.0176 22.6371ZM22.1947 21.6159L22.193 21.6903L20.3253 21.6502L20.2954 21.6495L20.2743 21.6284L20.082 21.4361L20.1344 21.3833M22.1947 21.6159L20.3269 21.5758L20.1344 21.3833M20.1344 21.3833L20.0818 21.4359L20.0609 21.4151C19.9504 21.3054 19.753 21.1094 19.6092 20.9625M20.1344 21.3833L20.1134 21.3624C20.0027 21.2525 19.8055 21.0567 19.662 20.9101M19.6092 20.9625C19.5675 20.9209 19.5042 20.8582 19.4266 20.7811C19.2197 20.5758 18.9107 20.2692 18.6341 19.9923L18.6342 19.9924L18.6866 19.9396M19.6092 20.9625C19.6093 20.9626 19.6094 20.9627 19.6096 20.9628L19.662 20.9101M19.6092 20.9625C19.6091 20.9624 19.609 20.9623 19.6089 20.9621L19.662 20.9101M18.6866 19.9396L18.634 19.9922L17.9605 19.3243M18.6866 19.9396L17.9911 19.2499M18.6866 19.9396C18.9631 20.2164 19.2719 20.5229 19.4789 20.7282C19.5567 20.8055 19.6202 20.8684 19.662 20.9101M17.9605 19.3243H17.3525C17.0018 19.3243 15.5707 19.3042 14.1756 19.2801L11.6386 19.236L11.6197 19.2357L11.6032 19.2263L11.3845 19.102L11.3841 19.1018C10.8566 18.7985 10.4411 18.3925 10.0895 17.8253L10.0895 17.8253C9.75399 17.2839 9.44086 16.2536 9.3657 15.4632L9.36566 15.4628L9.33905 15.163M17.9605 19.3243L17.9387 19.3027L17.9911 19.2499M17.9605 19.3243H17.9911V19.2499M9.33905 15.163L9.38101 15.1802L9.40914 15.1113L9.33504 15.1179L9.33905 15.163ZM17.9911 19.2499H17.3525C17.0026 19.2499 15.5723 19.2298 14.1769 19.2057L11.6399 19.1616M17.9911 19.2499L11.6399 19.1616M11.6399 19.1616L11.4212 19.0373M11.6399 19.1616L11.4212 19.0373M11.4212 19.0373C10.9051 18.7406 10.4983 18.3435 10.1527 17.7861M11.4212 19.0373L10.1527 17.7861M10.1527 17.7861C9.82468 17.2568 9.51412 16.2382 9.43976 15.4562L10.1527 17.7861Z" fill="black" fill-opacity="0.5" stroke="white" stroke-width="0.148783"/>
<path d="M53.4124 17.7861L53.4756 17.8253C53.8111 17.2839 54.1242 16.2536 54.1994 15.4632L54.1994 15.4628L54.2261 15.163L54.6652 14.9837C55.6274 14.5912 56.4703 14.0489 57.2683 13.3093C58.1059 12.5373 58.6521 11.7655 58.9546 10.9011M53.4124 17.7861L58.8844 10.8765M53.4124 17.7861L53.4756 17.8253C53.124 18.3925 52.7085 18.7985 52.181 19.1018L52.1806 19.102L51.9619 19.2263L51.9454 19.2357L51.9265 19.236L49.3895 19.2801C47.9944 19.3042 46.5633 19.3243 46.2126 19.3243H45.6046L44.9311 19.9922C44.9311 19.9922 44.9311 19.9922 44.9311 19.9923C44.6544 20.2692 44.3452 20.576 44.1383 20.7813C44.0608 20.8582 43.9976 20.9209 43.9559 20.9625C43.8121 21.1094 43.6147 21.3053 43.5042 21.4151C43.4968 21.4224 43.4898 21.4294 43.4832 21.436C43.4831 21.436 43.4831 21.4361 43.4831 21.4361L43.2908 21.6284L43.2697 21.6495L43.2398 21.6502L41.3721 21.6903C41.3721 21.6903 41.3721 21.6903 41.372 21.6903C39.9016 21.7224 39.1258 21.7404 38.7058 21.7634C38.4948 21.7749 38.3785 21.7875 38.3102 21.8025C38.2767 21.8098 38.2582 21.8171 38.2472 21.823C38.2375 21.8282 38.2315 21.8335 38.2244 21.8415L38.2244 21.8415L38.2231 21.843C38.071 22.0063 37.897 22.2058 37.7609 22.3684C37.6929 22.4498 37.6348 22.5214 37.5939 22.5743C37.5734 22.6009 37.5579 22.622 37.5477 22.6368C37.5477 22.6369 37.5476 22.637 37.5475 22.6371C37.5487 22.6403 37.55 22.6437 37.5515 22.6475C37.5582 22.6642 37.5672 22.6833 37.5763 22.7003C37.5807 22.7022 37.5912 22.7057 37.6134 22.7096C37.6698 22.7193 37.7749 22.7265 37.978 22.7316C38.3802 22.7415 39.1475 22.7426 40.6307 22.7446L40.6444 22.7446H40.6444H43.7083L44.142 22.3547C44.3945 22.1271 44.9841 21.5666 45.4565 21.1094C45.4565 21.1094 45.4566 21.1093 45.4566 21.1093L46.3182 20.2713L46.3402 20.2499L46.3708 20.2502L49.1046 20.2783L53.4124 17.7861ZM58.9546 10.9011L58.8844 10.8765M58.9546 10.9011C58.9546 10.9011 58.9546 10.9011 58.9546 10.9011L58.8844 10.8765M58.9546 10.9011C58.9949 10.7863 59.0285 10.6979 59.0578 10.6321C59.0862 10.5682 59.108 10.5319 59.1237 10.5136M58.8844 10.8765C59.0462 10.4153 59.1118 10.3471 59.2168 10.5156C59.3043 10.6559 59.2824 12.1598 59.1906 12.8134M59.1237 10.5136C59.1156 10.5047 59.1123 10.5037 59.1139 10.5044C59.1177 10.506 59.1248 10.507 59.1314 10.5048C59.1329 10.5043 59.1337 10.5039 59.1337 10.5039C59.1337 10.5039 59.1313 10.5053 59.1265 10.5105C59.1256 10.5115 59.1247 10.5125 59.1237 10.5136ZM59.1237 10.5136C59.1238 10.5137 59.1239 10.5138 59.124 10.5139C59.132 10.5227 59.1418 10.5359 59.1537 10.5549C59.1534 10.5545 59.1534 10.5545 59.1536 10.5551C59.1543 10.5567 59.1566 10.5625 59.1597 10.575C59.1635 10.5904 59.1672 10.6113 59.1708 10.6378C59.178 10.6907 59.1839 10.7612 59.1882 10.8457C59.1969 11.0145 59.1995 11.2343 59.1965 11.4711C59.1905 11.9451 59.1622 12.4807 59.1169 12.8029M59.1169 12.8029C59.1169 12.8028 59.1169 12.8027 59.117 12.8026L59.1906 12.8134M59.1169 12.8029C58.9168 14.1626 58.5476 15.2966 57.9577 16.3543M59.1169 12.8029C59.1169 12.8029 59.1169 12.803 59.1169 12.8031L59.1906 12.8134M59.1906 12.8134L57.9577 16.3543M57.9577 16.3543C57.9577 16.3543 57.9578 16.3542 57.9578 16.3542L58.0227 16.3906L57.9577 16.3543ZM57.9577 16.3543C57.4852 17.1969 56.97 17.832 56.2195 18.4922M57.9577 16.3543L56.2687 18.5481M56.2195 18.4922C56.2195 18.4922 56.2196 18.4922 56.2196 18.4922L56.2687 18.5481M56.2195 18.4922L56.2687 18.5481M56.2195 18.4922C55.0941 19.4803 53.9181 20.0042 52.2864 20.2389L52.2861 20.239C51.8867 20.298 51.5359 20.3024 49.1046 20.2783L49.1039 20.3527M56.2687 18.5481C55.1314 19.5466 53.9416 20.076 52.297 20.3126C51.8902 20.3727 51.5315 20.3767 49.1039 20.3527M49.1039 20.3527L46.3701 20.3246L49.1039 20.3527Z" fill="black" fill-opacity="0.5" stroke="white" stroke-width="0.148783"/>
<path d="M34.0352 11.0327C33.3616 11.1129 32.653 11.3295 31.8175 11.7145C31.3276 11.939 31.004 12.1275 30.1073 12.709C28.0952 14.0043 27.7977 14.1487 26.5336 14.4495C25.8906 14.6018 25.8206 14.6099 25.1777 14.6139C24.539 14.6179 24.4778 14.6099 24.1279 14.5016C23.9223 14.4374 23.7298 14.3692 23.6992 14.3452C23.6598 14.3171 23.6292 14.3171 23.5986 14.3452C23.5242 14.4134 23.7167 14.7101 23.9966 14.9628C24.4428 15.3638 25.2083 15.7327 26.1181 15.9854C26.4899 16.0896 26.5599 16.0977 27.3866 16.0977C28.152 16.0977 28.3095 16.0896 28.6594 16.0094C29.1187 15.9052 30.0329 15.5082 30.5272 15.2074L30.8509 15.0029L30.6103 15.3317C30.2035 15.8851 29.7573 16.8315 29.5299 17.6175C29.473 17.8221 29.3549 18.3514 29.2674 18.7965C29.0881 19.7269 28.9744 20.16 28.7207 20.8257C28.2964 21.9526 27.6053 22.895 26.5074 23.8535L25.9169 24.3628L24.1935 24.3467L22.4701 24.3347L22.2732 24.1582C22.0589 23.9738 21.8621 23.9016 21.5428 23.9016C21.2978 23.9016 20.926 24.062 20.7992 24.2264L20.7117 24.3427H20.1299H19.5482L19.4213 24.1582C19.1676 23.7853 18.6515 23.5527 18.1835 23.5928C17.7329 23.6289 17.348 23.8414 17.1249 24.1703L17.0331 24.3026H16.2982C15.5896 24.3026 15.559 24.2986 15.5327 24.2184C15.4978 24.1181 14.9554 23.3762 14.8723 23.3161C14.8373 23.292 14.7279 23.2559 14.6273 23.2439C14.0893 23.1637 13.8837 22.6023 14.273 22.2694C14.4086 22.1491 14.4523 22.1371 14.6798 22.1371C14.8898 22.1371 14.9597 22.1571 15.0647 22.2373C15.2353 22.3697 15.3097 22.5421 15.2834 22.7587C15.2616 22.9271 15.2703 22.9471 15.4321 23.0835C15.6683 23.28 15.8477 23.3401 16.1801 23.3401C17.278 23.3401 17.7592 22.0208 16.8843 21.4032C16.7662 21.323 16.6088 21.2388 16.5344 21.2187C16.4513 21.1987 15.0385 21.2027 13.1664 21.2268C10.8612 21.2548 9.82891 21.2548 9.55334 21.2227C8.801 21.1385 8.09239 20.8418 7.39691 20.3204C7.0601 20.0678 7.01199 20.0477 6.95512 20.0999C6.89826 20.152 6.89389 20.1921 6.93763 20.3365C7.21757 21.335 8.10114 22.6504 9.04157 23.4805C9.97763 24.3026 11.2855 24.9041 12.5365 25.0846C13.4157 25.2089 15.5634 25.3453 16.6613 25.3453H17.0287L17.1643 25.5378C17.4092 25.8826 17.7898 26.0671 18.2578 26.0671C18.6777 26.0671 18.9358 25.9749 19.207 25.7302C19.3338 25.618 19.4519 25.4936 19.4782 25.4535C19.5132 25.3934 19.605 25.3814 20.0993 25.3573L20.6767 25.3332L20.8385 25.4736C21.0922 25.6982 21.2672 25.7623 21.5953 25.7623C21.8271 25.7623 21.9189 25.7423 22.0852 25.6541C22.1945 25.5939 22.3214 25.5017 22.3695 25.4455L22.457 25.3453H24.246H26.035L26.3587 25.1448C27.4434 24.4871 28.5588 23.2238 29.2981 21.8363C29.5255 21.3992 29.7967 20.7134 29.9629 20.132C30.0504 19.8192 30.046 19.9956 29.9454 20.8337C29.6917 22.903 29.2981 23.8695 28.2658 24.9523C27.3778 25.8826 25.8163 26.7047 24.4341 26.9694C23.9529 27.0616 23.2312 27.0897 22.8419 27.0336C22.6582 27.0055 22.4745 26.9935 22.4351 27.0055C22.3826 27.0215 22.3126 27.1539 22.2295 27.3945C21.9933 28.0722 21.4509 28.9585 21.0091 29.3876C20.7948 29.5921 20.2787 29.941 19.92 30.1134C19.3295 30.4022 18.3715 30.6829 17.5798 30.7992C17.2736 30.8433 17.1774 30.9075 17.3086 30.9837C17.3786 31.0197 18.1878 31.1842 18.5946 31.2403C19.1545 31.3205 20.3618 31.3125 20.8167 31.2283C21.5778 31.0879 22.4876 30.747 23.1087 30.3701C23.9529 29.8568 24.9502 28.7901 25.1645 28.1604C25.2258 27.992 25.2608 27.9439 25.3482 27.9279C25.7113 27.8597 25.8906 27.7915 26.433 27.5228C28.2745 26.6005 29.6961 25.3653 30.4091 24.062C30.8771 23.2078 31.039 22.3817 31.1921 20.0718C31.3189 18.1509 31.5376 16.9879 31.9619 16.0014C32.1281 15.6164 32.3687 15.2074 32.3249 15.3798C32.1369 16.2019 32.08 16.4626 32.0056 16.9438C31.7782 18.3875 31.8044 19.3259 32.1106 20.6332C32.2462 21.2227 33.2872 24.5512 33.6634 25.6059C34.4464 27.7995 34.7088 29.3074 34.5382 30.6588C34.4289 31.513 34.4289 31.4809 34.5251 31.4809C34.6476 31.4809 35.5224 30.7069 35.8417 30.322C36.2354 29.8407 36.7647 28.8302 37.0446 28.0081C37.4077 26.9534 37.5345 25.4215 37.3377 24.4029C37.1146 23.2238 36.6028 21.728 36.0779 20.7054C35.6668 19.9154 35.4874 19.4703 35.3737 18.9369C35.2468 18.3755 35.2206 17.9263 35.2775 17.4371C35.3737 16.607 35.5793 16.1137 36.1479 15.3197C36.7559 14.4655 37.2327 14.0605 38.1206 13.6434C38.8992 13.2745 39.2448 13.1862 39.984 13.1622C40.3208 13.1541 40.6183 13.1261 40.6489 13.106C40.7407 13.0378 40.5483 12.7611 40.1415 12.3922C39.6953 11.9791 39.306 11.7826 38.7461 11.6824C38.405 11.6222 38.335 11.6222 37.6614 11.6864L36.944 11.7586L36.5197 11.5059C36.2879 11.3696 35.9992 11.2212 35.8767 11.1771C35.3912 11.0087 34.722 10.9565 34.0352 11.0327ZM35.5443 12.7371C35.7018 12.7692 35.8592 12.8133 35.8942 12.8333C35.9817 12.8855 35.9292 12.9175 35.5005 13.0699C34.9538 13.2664 34.547 13.3266 33.8165 13.3266C33.2216 13.3226 32.3381 13.2384 32.548 13.2023C32.5961 13.1942 32.9811 13.082 33.401 12.9496C33.8209 12.8213 34.2845 12.697 34.4289 12.6769C34.7351 12.6328 35.1462 12.6569 35.5443 12.7371ZM30.0635 19.8593C30.0504 19.8913 30.0373 19.8793 30.0373 19.8352C30.0329 19.7911 30.046 19.767 30.0592 19.7831C30.0723 19.7951 30.0767 19.8312 30.0635 19.8593Z" fill="#FFB208"/>
<path d="M11.1147 15.4377C10.6467 15.5419 10.3755 15.8668 10.3711 16.3239C10.3711 16.5405 10.393 16.6167 10.4936 16.7771C10.5636 16.8813 10.6992 17.0177 10.7998 17.0778C10.9004 17.138 11.001 17.2102 11.0185 17.2383C11.0797 17.3265 11.6746 17.9721 11.9108 18.2087L12.1339 18.4293L15.222 18.4534L18.3057 18.4774L18.4501 18.6057C18.6294 18.7702 18.765 18.8343 18.9881 18.8664C19.3861 18.9266 19.7929 18.7421 19.9941 18.4052C20.0991 18.2288 20.1122 18.1686 20.0947 17.932C20.0772 17.5952 19.9373 17.3826 19.6398 17.2222C19.2811 17.0297 18.8525 17.0498 18.5288 17.2824L18.3757 17.3947L15.5107 17.4227L12.6456 17.4508L12.3963 17.1701L12.147 16.8934L12.2345 16.741C12.3263 16.5726 12.3482 16.1635 12.2738 15.9871C12.1907 15.7825 11.8845 15.5259 11.6483 15.4617C11.4121 15.3976 11.3203 15.3935 11.1147 15.4377Z" fill="#FFB208"/>
<path d="M51.8983 15.4617C51.6839 15.5259 51.369 15.7946 51.2903 15.9871C51.2159 16.1635 51.2378 16.5726 51.3296 16.741L51.4171 16.8934L51.1678 17.1701L50.9185 17.4508L48.0534 17.4227L45.1884 17.3947L45.0353 17.2824C44.7116 17.0498 44.2829 17.0297 43.9243 17.2222C43.6268 17.3826 43.4869 17.5952 43.4694 17.932C43.4519 18.1686 43.465 18.2288 43.57 18.4052C43.7712 18.7421 44.178 18.9266 44.576 18.8664C44.7991 18.8343 44.9347 18.7702 45.114 18.6057L45.2584 18.4774L48.3421 18.4534L51.4302 18.4293L51.6533 18.2087C51.8895 17.9721 52.4844 17.3265 52.5456 17.2383C52.5631 17.2102 52.6637 17.138 52.7643 17.0778C53.263 16.7811 53.3461 16.1034 52.9349 15.6903C52.7075 15.4577 52.2526 15.3575 51.8983 15.4617Z" fill="#FFB208"/>
<path d="M29.1762 16.3468L29.1663 16.3356C29.2691 16.2445 29.342 16.1745 29.3853 16.1256C29.4072 16.1009 29.4206 16.0825 29.4268 16.0699C29.4288 16.0657 29.4298 16.0629 29.4302 16.0611C29.4301 16.0611 29.43 16.0611 29.43 16.0611C29.4283 16.0609 29.426 16.0608 29.4229 16.061C29.4166 16.0614 29.4081 16.063 29.3972 16.066C29.3755 16.0719 29.3459 16.0829 29.3083 16.0993C29.2331 16.1321 29.1274 16.1855 28.9909 16.2596L28.9908 16.2596C28.3737 16.5886 27.6726 16.8901 27.3033 16.9828L27.3033 16.9828C26.8285 17.0997 26.0869 17.0996 25.5905 16.9869L25.5905 16.9869C25.4944 16.9648 25.4049 16.9458 25.3385 16.9333C25.3052 16.9271 25.2779 16.9225 25.2585 16.92C25.2488 16.9187 25.2413 16.918 25.2363 16.9179C25.2354 16.9178 25.2346 16.9178 25.2339 16.9178C25.2313 16.921 25.2301 16.924 25.2298 16.9271C25.2294 16.9313 25.2304 16.9372 25.2342 16.9449C25.2421 16.9607 25.26 16.9804 25.288 17.0031C25.3435 17.0481 25.4333 17.1002 25.5422 17.1519C25.76 17.2552 26.0506 17.3549 26.2872 17.3908L26.2873 17.3908C26.6875 17.4546 27.2276 17.4186 27.584 17.311C27.7659 17.2535 28.0543 17.1039 28.3516 16.9211C28.6486 16.7384 28.9529 16.5233 29.1664 16.3356L29.1762 16.3468ZM29.1762 16.3468C29.5874 15.9818 29.5305 15.9498 28.9838 16.2465C28.367 16.5754 27.6671 16.8761 27.2997 16.9684C26.8273 17.0847 26.0881 17.0847 25.5938 16.9724C25.4014 16.9283 25.2351 16.8962 25.2264 16.9042C25.117 17.0044 25.8082 17.3333 26.2849 17.4055L29.1762 16.3468Z" fill="black" fill-opacity="0.5" stroke="white" stroke-width="0.0297566"/>
<path d="M2.11266 17.0471C1.85021 17.1032 1.5484 17.2636 1.3297 17.4642C0.638587 18.0857 0.717321 19.1244 1.49154 19.6578C1.78898 19.8663 2.07329 19.9465 2.47571 19.9425C3.09246 19.9385 3.57799 19.6658 3.8798 19.1605C4.02415 18.9199 4.02852 18.8918 4.02852 18.4868C4.02852 18.1058 4.0154 18.0456 3.90604 17.8451C3.56049 17.2276 2.81689 16.8947 2.11266 17.0471Z" fill="#FFB208"/>
<path d="M60.7137 17.0591C60.2632 17.1634 59.8827 17.4481 59.6596 17.8451C59.5502 18.0456 59.5371 18.1058 59.5371 18.4868C59.5371 18.8918 59.5415 18.9199 59.6858 19.1605C59.9876 19.6658 60.4732 19.9385 61.0899 19.9425C61.4923 19.9465 61.7767 19.8663 62.0741 19.6578C62.8483 19.1244 62.9227 18.0898 62.2359 17.4601C61.8379 17.0952 61.2343 16.9348 60.7137 17.0591Z" fill="#FFB208"/>
<path d="M20.5063 19.2787C20.2001 19.415 20.0164 19.792 20.1039 20.1008C20.1739 20.3334 20.2613 20.4417 20.4844 20.562C20.6463 20.6462 20.7162 20.6622 20.9349 20.6462C21.1055 20.6342 21.2411 20.6021 21.3199 20.5459C21.4336 20.4697 21.5255 20.4657 23.1876 20.4377C24.1499 20.4216 24.9548 20.3935 24.9722 20.3775C24.9941 20.3575 24.8935 20.2011 24.7535 20.0286C24.6092 19.8522 24.4517 19.6517 24.3949 19.5835L24.2986 19.4511L23.9181 19.4712C23.7081 19.4792 23.0958 19.4993 22.5534 19.5113L21.5692 19.5394L21.4598 19.4311C21.3986 19.3709 21.298 19.2987 21.2324 19.2667C21.0749 19.1905 20.6856 19.1985 20.5063 19.2787Z" fill="#FFB208"/>
<path d="M42.3021 19.2823C42.2321 19.3264 42.1315 19.3986 42.0834 19.4467C41.9959 19.5389 41.9915 19.5389 41.0117 19.5109C40.4693 19.4988 39.857 19.4788 39.647 19.4707L39.2664 19.4507L39.1702 19.583C39.1134 19.6512 38.9559 19.8517 38.8115 20.0282C38.6716 20.2006 38.571 20.357 38.5928 20.3771C38.6103 20.3931 39.4152 20.4212 40.3775 20.4372C42.044 20.4653 42.1315 20.4693 42.2496 20.5495C42.3327 20.6056 42.4552 20.6337 42.6433 20.6457C42.8838 20.6578 42.9363 20.6457 43.1157 20.5415C43.5793 20.2688 43.6012 19.6472 43.1638 19.3384C42.9582 19.194 42.5033 19.166 42.3021 19.2823Z" fill="#FFB208"/>
<path d="M56.1592 20.3289C55.4812 20.8382 54.7595 21.1389 54.0115 21.2231C53.7359 21.2552 52.7037 21.2552 50.3985 21.2271C48.5264 21.2031 47.1135 21.1991 47.0304 21.2191C46.8161 21.2753 46.4749 21.5399 46.3612 21.7405C46.0594 22.2738 46.2956 22.9636 46.8686 23.2283C47.3104 23.4328 47.8484 23.3646 48.1633 23.0598C48.2727 22.9556 48.2945 22.8994 48.2989 22.719C48.312 22.33 48.557 22.1214 48.9638 22.1495C49.1606 22.1615 49.2219 22.1856 49.3531 22.3059C49.5499 22.4864 49.5937 22.755 49.4668 22.9796C49.3706 23.1481 49.0513 23.3125 48.8851 23.2804C48.8238 23.2684 48.7407 23.2804 48.7057 23.3085C48.6139 23.3766 48.0715 24.1145 48.0321 24.2188C48.0059 24.299 47.9752 24.303 47.2666 24.303H46.5318L46.4399 24.1707C46.2168 23.8418 45.8319 23.6293 45.3814 23.5932C44.9134 23.5531 44.3972 23.7857 44.1435 24.1586L44.0167 24.3431H43.4349H42.8532L42.7657 24.2268C42.6388 24.0624 42.267 23.902 42.0221 23.902C41.7028 23.902 41.5059 23.9742 41.2872 24.1667L41.0816 24.3431H39.8306C39.1395 24.3431 38.3697 24.3551 38.1116 24.3672L37.6523 24.3952L37.7748 24.7C37.8404 24.8684 37.9323 25.081 37.9717 25.1732L38.0504 25.3457H39.5813H41.1079L41.1954 25.4459C41.2435 25.5021 41.3703 25.5943 41.4797 25.6545C41.6459 25.7427 41.7378 25.7627 41.9696 25.7627C42.2976 25.7627 42.4726 25.6986 42.7263 25.474L42.8882 25.3336L43.4655 25.3577C43.9598 25.3818 44.0517 25.3938 44.0867 25.4539C44.1129 25.494 44.231 25.6184 44.3579 25.7306C44.629 25.9753 44.8871 26.0675 45.307 26.0675C45.7751 26.0675 46.1556 25.883 46.4006 25.5382L46.5362 25.3457H46.9036C48.0015 25.3457 50.1492 25.2093 51.0284 25.085C52.2794 24.9045 53.5872 24.303 54.5233 23.4809C55.4637 22.6508 56.3473 21.3354 56.6272 20.3409C56.6622 20.2086 56.6622 20.1524 56.6229 20.1083C56.5966 20.0762 56.5616 20.0522 56.5441 20.0522C56.531 20.0562 56.356 20.1765 56.1592 20.3289Z" fill="#FFB208"/>
<path d="M31.5714 22.447C31.5408 23.2571 31.4446 23.7423 31.1909 24.3438C30.7841 25.3183 30.4997 25.6752 29.135 26.9505C28.5314 27.5119 27.9321 28.1094 27.7965 28.2739C26.9917 29.2724 26.5762 30.295 26.5762 31.2856C26.5762 31.8309 26.5805 31.8269 27.3635 31.2254C28.9251 30.0183 30.2154 28.8634 30.8628 28.0854C31.1077 27.7886 31.309 27.4838 31.497 27.1309C32.1094 25.972 32.3369 25.1298 32.2975 24.1714C32.28 23.7503 32.2625 23.6821 32.0351 23.0806C31.7464 22.3147 31.6676 22.1382 31.6151 22.1382C31.5976 22.1382 31.5758 22.2786 31.5714 22.447Z" fill="#FFB208"/>
<path d="M7.33471 25.4557C7.43998 25.2768 7.48504 25.0654 7.46792 24.8219C7.42549 24.278 6.99809 23.8898 6.36195 23.8307L6.36184 23.8307C6.19982 23.815 6.06826 23.8306 5.91889 23.8775C5.47556 24.0229 5.19477 24.349 5.10874 24.7068C5.02278 25.0644 5.13062 25.4557 5.46944 25.7351L5.46944 25.7351L5.46966 25.7353C5.59923 25.8442 5.70755 25.9119 5.8297 25.9535C5.95218 25.9951 6.09069 26.011 6.2819 26.013L6.28201 26.013C6.42411 26.015 6.51088 26.0119 6.58721 25.9961C6.66304 25.9804 6.73016 25.9518 6.83239 25.9L6.83243 25.8999C7.06245 25.7836 7.22936 25.6348 7.33471 25.4557Z" fill="black" fill-opacity="0.5" stroke="white" stroke-width="0.0595132"/>
<path d="M58.5 24.8878L58.4703 24.8898C58.4595 24.7238 58.4306 24.5924 58.3753 24.476C58.32 24.3597 58.2375 24.2565 58.1171 24.148L58.117 24.148C57.8223 23.8817 57.3904 23.7681 57.015 23.8501C56.4702 23.976 56.1359 24.3356 56.0977 24.8299C56.0806 25.0672 56.1266 25.2766 56.2325 25.4552C56.3384 25.6339 56.5055 25.7837 56.7333 25.9L56.7198 25.9265L56.7332 25.9C56.8354 25.9518 56.9026 25.9804 56.9784 25.9961C57.0547 26.0119 57.1415 26.015 57.2836 26.013L57.2837 26.013C57.477 26.011 57.6177 25.9941 57.7423 25.951C57.8667 25.908 57.9773 25.8382 58.1091 25.7273C58.2463 25.6113 58.3415 25.4895 58.4 25.3538C58.4585 25.218 58.481 25.0665 58.4703 24.8896L58.5 24.8878ZM58.5 24.8878C58.4781 24.551 58.3819 24.3465 58.137 24.1259M58.5 24.8878C58.5219 25.2488 58.4082 25.5134 58.1282 25.75L58.137 24.1259M58.137 24.1259C57.8352 23.8532 57.3934 23.7369 57.0084 23.8211C56.4529 23.9494 56.1074 24.3184 56.068 24.8277L58.137 24.1259Z" fill="black" fill-opacity="0.5" stroke="white" stroke-width="0.0595132"/>
<path d="M10.3597 26.0349C10.3711 26.0395 10.3861 26.0462 10.406 26.0558C10.4423 26.0733 10.4901 26.0983 10.5548 26.1325L10.5554 26.1328L10.5554 26.1328C10.684 26.1992 10.9408 26.2811 11.2264 26.3552C11.5144 26.43 11.8397 26.4988 12.1099 26.5373C12.1099 26.5373 12.11 26.5373 12.11 26.5373L12.1205 26.4637C12.4004 26.5038 13.4852 26.596 15.0861 26.7123L10.3597 26.0349ZM10.3597 26.0349C10.3655 26.0545 10.3752 26.0807 10.3891 26.113C10.4218 26.1887 10.4734 26.289 10.5361 26.3994C10.6617 26.6203 10.8278 26.874 10.9663 27.042L10.9663 27.042L10.9666 27.0424C11.129 27.2422 11.4044 27.5138 11.6936 27.77C11.9827 28.0261 12.281 28.2626 12.4882 28.3938M10.3597 26.0349L12.4882 28.3938M12.4882 28.3938C13.4699 29.0084 14.4376 29.3137 15.6903 29.3972L15.6904 29.3972C16.2843 29.4369 17.0607 29.3969 17.5566 29.3021C18.6223 29.0964 19.633 28.566 20.4455 27.7935C20.6209 27.6247 20.8096 27.4249 20.969 27.2419C21.1297 27.0575 21.2566 26.8948 21.3117 26.7995L21.312 26.7988C21.317 26.7904 21.3222 26.7825 21.327 26.7753C21.3197 26.7741 21.3115 26.7729 21.3022 26.7717C21.2474 26.7647 21.1646 26.7596 21.0418 26.7566C20.6146 26.7462 19.7359 26.7615 17.9786 26.7921C17.7159 26.7966 17.4335 26.8015 17.1301 26.8068C17.1301 26.8068 17.1301 26.8068 17.1301 26.8068L17.1288 26.7324L12.4882 28.3938Z" fill="black" fill-opacity="0.5" stroke="white" stroke-width="0.148783"/>
<path d="M51.4548 26.5373C51.1716 26.5779 50.0835 26.6703 48.4841 26.7865L48.4839 26.7865L46.4347 26.8068C46.4347 26.8068 46.4347 26.8068 46.4347 26.8068C44.534 26.7747 43.4901 26.7576 42.9132 26.7536C42.6244 26.7516 42.4541 26.7529 42.3523 26.7571C42.3011 26.7592 42.2694 26.7619 42.2494 26.7649C42.2432 26.7659 42.2387 26.7668 42.2356 26.7675C42.2378 26.7735 42.2417 26.7824 42.2486 26.795C42.2839 26.8597 42.3671 26.9679 42.5263 27.1625L42.5265 27.1628C43.4259 28.2728 44.688 29.0449 46.0083 29.3021C46.5041 29.3969 47.2806 29.4369 47.8745 29.3972L47.8745 29.3972C49.1272 29.3137 50.095 29.0084 51.0767 28.3938C51.2838 28.2626 51.5821 28.0261 51.8712 27.77C52.1605 27.5138 52.4358 27.2422 52.5982 27.0424L52.5986 27.042C52.7371 26.874 52.9031 26.6203 53.0287 26.3994C53.0915 26.289 53.143 26.1887 53.1757 26.113C53.1898 26.0802 53.1997 26.0537 53.2054 26.034C53.1927 26.0387 53.1752 26.0461 53.1512 26.0576C53.1151 26.0749 53.0682 26.0992 53.0059 26.1323C52.8811 26.1992 52.6259 26.2812 52.3412 26.3552C52.0537 26.43 51.7272 26.4988 51.4548 26.5373ZM51.4548 26.5373C51.4549 26.5373 51.4549 26.5373 51.4549 26.5373L51.4443 26.4637L51.4548 26.5374C51.4548 26.5374 51.4548 26.5374 51.4548 26.5373ZM53.2111 26.0079C53.2112 26.007 53.2111 26.0072 53.2111 26.0083C53.2111 26.0082 53.2111 26.008 53.2111 26.0079Z" fill="black" fill-opacity="0.5" stroke="white" stroke-width="0.148783"/>
<path d="M38.4002 26.9453C38.3784 27.0255 38.3652 27.3263 38.3652 27.615V28.1364L38.5271 28.4371C38.7414 28.8261 39.0607 29.2111 39.5462 29.6603C40.0668 30.1375 40.4342 30.3861 41.0597 30.6789C42.057 31.1441 42.77 31.3005 43.8766 31.2924C44.6596 31.2884 45.0357 31.2523 45.7662 31.0999C46.2517 30.9997 46.3042 30.9796 46.3042 30.8994C46.3042 30.8633 46.1993 30.8313 45.9893 30.7992C45.1932 30.6829 44.2353 30.4022 43.6448 30.1134C43.2861 29.941 42.77 29.5921 42.5556 29.3876C42.1138 28.9585 41.5715 28.0722 41.3353 27.3945C41.2521 27.1539 41.1822 27.0215 41.1297 27.0055C41.0903 26.9935 40.9066 27.0055 40.7229 27.0336C40.1717 27.1138 39.3013 27.0416 38.6408 26.8571L38.4352 26.797L38.4002 26.9453Z" fill="#FFB208"/>
<path d="M32.7132 27.3387L32.7498 27.3644C32.5839 27.6005 32.4005 27.8687 32.3436 27.953C32.3436 27.953 32.3435 27.9531 32.3434 27.9532L32.246 28.1021L32.2286 31.0164L32.2286 31.0164L32.2069 33.9238L33.3117 34.9129L33.3117 34.9129L34.4315 35.9195L34.4459 35.9325L34.4463 35.9518L34.4594 36.6133C34.4594 36.6133 34.4594 36.6134 34.4594 36.6134C34.466 36.8824 34.4725 37.0529 34.4854 37.17C34.4982 37.2863 34.5168 37.3455 34.5452 37.3939L34.5452 37.3939L34.5456 37.3947C34.639 37.5622 34.7836 37.6584 34.984 37.6809L34.984 37.6809L34.9847 37.681C35.0636 37.691 35.0998 37.691 35.1347 37.6765C35.1724 37.6608 35.2134 37.6264 35.2935 37.5488L35.2936 37.5487L35.4549 37.3935L35.4549 36.5021L35.4549 36.5019L35.4592 35.6117L34.3457 34.6185L34.3456 34.6185L33.2171 33.6079L33.2025 33.5948L33.2023 33.5752L33.1716 31.0568C33.1684 30.8035 33.1654 30.5657 33.1625 30.3425C33.1404 28.6107 33.1295 27.7542 33.1164 27.3311C33.1127 27.2117 33.1089 27.1274 33.1046 27.0679C33.1006 27.0121 33.0964 26.9805 33.0923 26.9629C33.0902 26.9628 33.088 26.9626 33.0857 26.9623C33.0856 26.9623 33.0854 26.9624 33.0852 26.9625C33.0816 26.964 33.0756 26.9673 33.0667 26.974C33.049 26.9873 33.0255 27.0099 32.9953 27.0436C32.9353 27.1108 32.8545 27.2164 32.7497 27.3645L32.7132 27.3387ZM32.7132 27.3387C32.9232 27.042 33.0413 26.9096 33.0894 26.9176L32.3065 27.9282C32.3633 27.844 32.547 27.5753 32.7132 27.3387Z" fill="black" fill-opacity="0.5" stroke="white" stroke-width="0.0892699"/>
<path d="M8.26222 28.1484C7.7767 28.3008 7.49238 28.5735 7.35241 29.0146C7.21681 29.4397 7.35241 29.8968 7.71108 30.2217C8.20536 30.6668 9.07581 30.6668 9.57445 30.2257C9.87189 29.957 9.97687 29.7244 9.97687 29.3154C9.97687 29.0266 9.95938 28.9464 9.85877 28.77C9.74504 28.5695 9.48697 28.3248 9.29451 28.2286C9.15017 28.1604 8.77399 28.0722 8.6209 28.0722C8.55091 28.0762 8.38907 28.1083 8.26222 28.1484Z" fill="#FFB208"/>
<path d="M54.5721 28.1283C54.4627 28.1564 54.3271 28.2005 54.2746 28.2286C54.0778 28.3248 53.8197 28.5695 53.706 28.77C53.6054 28.9464 53.5879 29.0266 53.5879 29.3154C53.5879 29.7244 53.6929 29.957 53.9903 30.2257C54.489 30.6668 55.3594 30.6668 55.8537 30.2217C56.5142 29.6241 56.3523 28.6256 55.5344 28.2406C55.2063 28.0882 54.8695 28.0481 54.5721 28.1283Z" fill="#FFB208"/>
<path d="M39.6504 48.6653L39.609 48.6485C39.6759 48.4836 39.7051 48.2648 39.6965 48.0454C39.6879 47.8261 39.6418 47.6113 39.5624 47.4543L39.5623 47.4541C39.4187 47.1675 39.0858 46.8618 38.7713 46.7294L38.771 46.7292C38.6653 46.6837 38.5925 46.6582 38.5031 46.6435C38.4125 46.6287 38.3032 46.6246 38.1238 46.6246C37.9755 46.6246 37.8649 46.6286 37.7806 46.6383C37.6961 46.6481 37.6411 46.6632 37.6021 46.6836L37.6021 46.6837L37.6016 46.6839L37.4747 46.7481L37.445 46.7631L37.4222 46.739L37.1335 46.4342L37.1335 46.4342C35.808 45.0346 34.0499 43.1901 33.6434 42.7733L33.1448 42.2641L33.1322 42.2512L33.132 42.2332L33.1102 39.6948L33.1102 39.6947C33.1014 38.2988 33.0796 36.9488 33.0665 36.7012C33.0665 36.7011 33.0665 36.7011 33.0665 36.7011L33.0413 36.2577L32.1617 35.4197L31.2694 34.5695L31.2556 34.5563V34.5372V32.0509C31.2556 31.291 31.2512 30.6587 31.2435 30.2089C31.2397 29.984 31.2351 29.8049 31.2298 29.6785C31.2271 29.6153 31.2243 29.5656 31.2214 29.5302C31.2199 29.5124 31.2185 29.4987 31.2171 29.4888C31.2158 29.4802 31.215 29.477 31.2151 29.477L31.2149 29.4764C31.2058 29.4533 31.1923 29.432 31.1787 29.4173C31.172 29.4099 31.1661 29.4051 31.1617 29.4024C31.1614 29.4022 31.1612 29.4021 31.161 29.402C31.1604 29.4022 31.1598 29.4025 31.1592 29.4028C31.1521 29.4059 31.1423 29.4109 31.1296 29.4181C31.1044 29.4323 31.0706 29.4532 31.0305 29.4795C30.9505 29.532 30.8474 29.6047 30.7408 29.6845L30.7407 29.6846C30.6805 29.7292 30.6265 29.7667 30.5788 29.7997C30.5644 29.8096 30.5506 29.8192 30.5374 29.8284C30.4798 29.8687 30.4337 29.9025 30.3956 29.9383C30.3222 30.0072 30.2758 30.0854 30.2461 30.2368C30.2158 30.3912 30.2037 30.6178 30.1989 30.9813C30.196 31.2058 30.1958 31.4807 30.1956 31.821C30.1954 32.0307 30.1953 32.2653 30.1944 32.5282L30.1944 32.5283C30.1901 33.6254 30.189 34.2231 30.1977 34.5576C30.2021 34.7252 30.2089 34.8246 30.2185 34.887C30.228 34.9485 30.2396 34.969 30.2504 34.9827L30.2506 34.983C30.2595 34.9944 30.2913 35.028 30.3446 35.0816C30.3968 35.1341 30.4673 35.2036 30.5511 35.2852C30.7187 35.4484 30.9394 35.6598 31.1733 35.8802C31.1733 35.8802 31.1733 35.8802 31.1733 35.8802L32.0305 36.6822L32.0447 36.6954V36.7148V38.1384C32.0447 38.9201 32.0578 40.2512 32.0753 41.097L32.0753 41.0972L32.1012 42.6156L32.3079 42.8316L32.308 42.8317C32.4189 42.9485 33.3327 43.855 34.3773 44.8912C34.4392 44.9526 34.5015 45.0144 34.5641 45.0765C35.6831 46.1866 36.6379 47.1382 36.6869 47.1913L36.6874 47.1919L36.6888 47.1934C36.7253 47.2344 36.7578 47.2707 36.7578 47.3269C36.7578 47.3528 36.751 47.3801 36.7407 47.4107C36.7303 47.4415 36.715 47.4794 36.6954 47.5272L36.6954 47.5272L36.695 47.5282C36.6374 47.6603 36.6102 47.8526 36.6151 48.0531C36.6199 48.2533 36.6564 48.4559 36.7214 48.6076L36.7215 48.6079C36.7881 48.7663 36.9276 48.9447 37.096 49.0991C37.2643 49.2534 37.457 49.3796 37.6264 49.4371L37.6269 49.4373C37.9584 49.5542 38.4204 49.5542 38.7519 49.4373L38.7524 49.4371C38.9222 49.3795 39.1039 49.2621 39.2603 49.1177C39.4168 48.9733 39.5445 48.8049 39.6091 48.6483L39.6504 48.6653ZM39.6504 48.6653C39.5148 48.9941 39.1211 49.359 38.7668 49.4793L33.6753 42.7422C34.0821 43.1592 35.8405 45.0039 37.1659 46.4035L37.4546 46.7083L37.5814 46.6441C37.6733 46.596 37.8264 46.5799 38.1238 46.5799C38.4825 46.5799 38.5743 46.596 38.7887 46.6882C39.1123 46.8246 39.4535 47.1374 39.6022 47.4341C39.7685 47.763 39.7903 48.3204 39.6504 48.6653ZM30.1498 32.5281C30.1411 34.7217 30.1454 34.9222 30.2154 35.0104L30.1498 32.5281ZM30.1498 32.5281C30.1559 30.6053 30.1258 30.1885 30.3182 29.9554C30.4015 29.8545 30.5264 29.788 30.7141 29.6487M30.1498 32.5281L30.7141 29.6487M30.7141 29.6487C30.9284 29.4883 31.1296 29.356 31.1602 29.356M30.7141 29.6487L31.1602 29.356M31.1602 29.356C31.1908 29.356 31.2346 29.4041 31.2564 29.4602L31.1602 29.356ZM33.1548 39.6944C33.1461 38.2988 33.1242 36.9474 33.1111 36.6987L33.1548 39.6944Z" fill="black" fill-opacity="0.5" stroke="white" stroke-width="0.0892699"/>
<path d="M29.3767 31.2098L29.3772 31.2095C29.4516 31.1527 29.515 31.1326 29.559 31.1363C29.5803 31.1381 29.5971 31.1453 29.6105 31.1569C29.624 31.1687 29.6361 31.187 29.644 31.2145L29.6442 31.2151C29.6442 31.2151 29.6442 31.215 29.6442 31.2151L29.6443 31.2153L29.6445 31.2162L29.6451 31.2191L29.6466 31.229C29.6478 31.2372 29.649 31.248 29.6501 31.2614C29.6524 31.288 29.6546 31.3236 29.6567 31.3672C29.6607 31.4543 29.6641 31.5719 29.6669 31.7115C29.6723 31.9905 29.6751 32.356 29.6751 32.7375C29.6751 33.5012 29.6641 34.3266 29.6424 34.6518C29.6315 34.8013 29.6163 34.9456 29.6006 35.0578C29.5927 35.1139 29.5848 35.1615 29.5774 35.1974C29.5736 35.2154 29.5701 35.2299 29.5669 35.2409C29.5654 35.2463 29.564 35.2505 29.5628 35.2536C29.5616 35.2568 29.5609 35.2579 29.561 35.2577L29.5602 35.2591L29.5602 35.2592C29.5605 35.2586 29.5605 35.2586 29.56 35.2593C29.5594 35.2602 29.5579 35.2622 29.5551 35.2655C29.5508 35.2706 29.5448 35.2774 29.5369 35.286C29.5211 35.303 29.499 35.3256 29.4711 35.3534C29.4155 35.4088 29.3379 35.4836 29.244 35.5724C29.0561 35.7501 28.8038 35.9835 28.5327 36.23L28.5627 36.263L28.5328 36.2299C27.1596 37.4728 25.758 38.8139 25.3361 39.2934L25.3696 39.3228L25.3362 39.2933C24.5333 40.2023 23.6775 41.4975 23.286 42.401L23.2856 42.4018L23.2856 42.4018C23.2673 42.4466 23.2442 42.486 23.2225 42.5134C23.2116 42.5271 23.202 42.5367 23.1946 42.5424C23.193 42.5436 23.1916 42.5445 23.1906 42.5452C23.1877 42.543 23.1825 42.5379 23.1754 42.526C23.1623 42.5042 23.1489 42.4693 23.1365 42.4216C23.112 42.3268 23.0942 42.1922 23.085 42.0371C23.0666 41.7271 23.083 41.3442 23.1432 41.0523L23.0995 41.0432M29.3767 31.2098L26.9175 36.3482C25.9723 37.2108 25.0027 38.1238 24.7592 38.3829L24.7592 38.383C23.747 39.4589 23.3289 40.1575 23.1432 41.0523L23.0995 41.0432M29.3767 31.2098C29.3051 31.2632 29.1199 31.3844 28.9622 31.4808L28.9615 31.4812C28.8838 31.5268 28.8071 31.5763 28.7463 31.6187C28.7159 31.6399 28.6897 31.6592 28.6695 31.6751C28.6483 31.6918 28.6362 31.7029 28.6318 31.7082L28.5977 31.6793M29.3767 31.2098L26.9175 36.3481L28.6321 34.7882L28.6471 34.7746L28.6467 34.7543L28.6161 33.2465C28.6052 32.6468 28.6008 32.2687 28.6046 32.034C28.6065 31.9165 28.6105 31.8362 28.6165 31.7827C28.6195 31.7558 28.6228 31.737 28.6263 31.724C28.63 31.7102 28.6327 31.7071 28.6319 31.708L28.5977 31.6793M23.0995 41.0432C23.2876 40.1369 23.7119 39.4311 24.7267 38.3524L23.3269 42.4187C23.2876 42.515 23.2263 42.5912 23.1913 42.5912C23.0339 42.5912 22.977 41.6368 23.0995 41.0432ZM28.5977 31.6793C28.554 31.7315 28.5496 32.0483 28.5715 33.2473L28.5977 31.6793Z" fill="black" fill-opacity="0.5" stroke="white" stroke-width="0.0892699"/>
<path d="M27.0543 32.662C26.3107 33.3157 22.9645 35.413 19.9114 37.1374C19.7014 37.2577 19.5177 37.3821 19.5046 37.4101C19.4346 37.5705 19.9332 37.7189 20.7337 37.7831C22.2559 37.9034 23.8612 37.5064 25.2128 36.6803C25.9301 36.2431 27.4829 35.024 27.6098 34.8075C27.6667 34.7032 27.671 34.5388 27.6448 33.5964C27.6273 32.9828 27.5967 32.4856 27.5704 32.4535C27.4829 32.3532 27.3386 32.4134 27.0543 32.662Z" fill="#FFB208"/>
<path d="M13.5036 32.8504L13.5035 32.8505C13.1756 32.9177 12.9202 33.0497 12.7422 33.2378C12.5644 33.4256 12.4618 33.6713 12.4425 33.97C12.4318 34.1651 12.4544 34.3321 12.5143 34.4831C12.5741 34.6342 12.6719 34.771 12.8137 34.905C13.3356 35.3952 14.2576 35.3795 14.7623 34.8697C14.892 34.737 14.9778 34.6188 15.0316 34.4887C15.0854 34.3586 15.1081 34.2144 15.1081 34.0284C15.1081 33.8922 15.1037 33.8058 15.0869 33.73C15.0703 33.6548 15.0412 33.5885 14.9893 33.4932L14.9891 33.4929C14.8441 33.2193 14.5572 32.9795 14.249 32.8735C14.1149 32.8279 14.0141 32.8048 13.9051 32.8014C13.7955 32.798 13.6758 32.8145 13.5036 32.8504Z" fill="black" fill-opacity="0.5" stroke="white" stroke-width="0.0595132"/>
<path d="M50.7723 34.9267L50.7518 34.905C50.8937 34.771 50.9915 34.6342 51.0513 34.4831C51.1112 34.3321 51.1338 34.1651 51.1231 33.97C51.1038 33.6637 50.9927 33.4101 50.8025 33.2187C50.6121 33.0271 50.3406 32.896 49.9975 32.8386L49.9973 32.8386C49.8247 32.8085 49.7172 32.7961 49.6209 32.8019C49.5251 32.8076 49.4386 32.8316 49.308 32.8774L49.308 32.8775C49.0042 32.9834 48.7215 33.2231 48.5764 33.4931L48.5763 33.4932C48.5244 33.5885 48.4953 33.6548 48.4787 33.73C48.4619 33.8058 48.4575 33.8922 48.4575 34.0284C48.4575 34.2144 48.4802 34.3586 48.534 34.4887C48.5878 34.6188 48.6736 34.737 48.8033 34.8697C49.3081 35.3795 50.23 35.3952 50.7519 34.905L50.7723 34.9267ZM50.7723 34.9267C51.0609 34.654 51.1747 34.3652 51.1528 33.9682C51.1134 33.3426 50.6979 32.9256 50.0024 32.8093L50.7723 34.9267Z" fill="black" fill-opacity="0.5" stroke="white" stroke-width="0.0595132"/>
<path d="M29.0805 39.7907L29.1251 39.7912C29.1186 40.3136 29.1142 40.5944 29.102 40.7442C29.0961 40.8174 29.0879 40.8667 29.0726 40.8981C29.0642 40.9154 29.0522 40.9304 29.0345 40.9399C29.0177 40.9489 29.0007 40.9502 28.9886 40.9502C28.986 40.9502 28.9761 40.9517 28.9572 40.9587C28.9397 40.9651 28.9181 40.9747 28.894 40.9869C28.8458 41.0114 28.7899 41.0453 28.7393 41.082L28.7385 41.0825C28.2695 41.4089 28.1879 42.0674 28.5579 42.4715L28.5579 42.4715L28.6935 42.6199L28.7054 42.6329L28.7052 42.6505L28.679 44.8561L28.679 44.8561L28.6573 47.0429L28.8408 47.2262L28.8408 47.2262L28.8413 47.2266C28.9499 47.3382 29.4129 47.7867 29.8767 48.228L29.8768 48.228L30.7166 49.0301L30.7307 49.0435L30.7304 49.0629L30.7042 51.0159L30.7042 51.016C30.6932 51.7278 30.69 52.2165 30.6938 52.5297C30.6957 52.6864 30.6994 52.7983 30.7047 52.872C30.7073 52.909 30.7103 52.9351 30.7134 52.952C30.7136 52.9532 30.7139 52.9544 30.7141 52.9555C30.7179 52.9559 30.723 52.9562 30.7294 52.9563C30.7476 52.9566 30.7717 52.9547 30.8012 52.9506C30.8602 52.9423 30.9364 52.9255 31.0218 52.9022C31.1925 52.8556 31.3957 52.7843 31.5639 52.7072C32.2668 52.385 32.861 51.8735 33.1131 51.3839L33.1132 51.3837C33.1837 51.2485 33.256 51.0608 33.3108 50.8824C33.3656 50.7038 33.4008 50.5409 33.4012 50.4515C33.401 50.4508 33.4 50.4475 33.3967 50.4409C33.392 50.4315 33.3844 50.4188 33.3731 50.4027C33.3507 50.3705 33.3167 50.3282 33.2712 50.2763C33.1804 50.1728 33.0469 50.0343 32.8767 49.8683L32.8765 49.8681C32.5791 49.5754 32.0367 49.042 31.6693 48.6811L31.6691 48.681C31.3019 48.3162 30.6984 47.7269 30.3268 47.3701L29.6489 46.7205L29.6348 46.707L29.6351 46.6876L29.6657 44.7787L29.6963 42.8698L29.6968 42.8432L29.7204 42.8309L29.9522 42.7106L29.9523 42.7106C30.2567 42.5536 30.4395 42.3105 30.4939 42.044C30.5483 41.7776 30.4754 41.4823 30.2577 41.2187L30.2576 41.2185L30.087 41.01L30.0768 40.9975L30.0769 40.9814L30.0856 39.8827L30.0856 39.8826L30.09 38.7799L30.0901 38.753L30.1139 38.7406L30.2972 38.6446C30.2972 38.6445 30.2973 38.6445 30.2974 38.6444C30.5147 38.5272 30.673 38.3811 30.773 38.2097C30.8729 38.0384 30.9162 37.8391 30.8993 37.6124L30.8993 37.6122C30.8845 37.4005 30.8243 37.2211 30.7203 37.0723C30.6162 36.9234 30.4665 36.8028 30.2691 36.7113C30.161 36.6617 30.0095 36.6245 29.8571 36.6063C29.7043 36.588 29.556 36.5895 29.4539 36.6139L29.4538 36.6139C29.0942 36.6992 28.8121 36.9158 28.6477 37.2327L28.6477 37.2327L28.6473 37.2335C28.5952 37.3289 28.5618 37.4924 28.5537 37.6624C28.5456 37.8323 28.5634 37.9978 28.6054 38.0969C28.6376 38.1726 28.7137 38.2806 28.8019 38.3813C28.8902 38.4821 28.9845 38.5685 29.0497 38.6047L29.0499 38.6049C29.08 38.6219 29.0956 38.6525 29.1053 38.6915C29.1151 38.7305 29.1212 38.7871 29.1251 38.8692C29.1328 39.0343 29.1317 39.3145 29.1251 39.7913L29.0805 39.7907ZM29.0805 39.7907C29.0936 38.8362 29.0849 38.6758 29.028 38.6438L28.6343 44.8556L28.6606 42.65L28.525 42.5016C28.1357 42.0765 28.2232 41.3868 28.7131 41.0459C28.818 40.9697 28.9449 40.9055 28.9886 40.9055C29.063 40.9055 29.0674 40.8374 29.0805 39.7907ZM29.4435 36.5705C29.0717 36.6587 28.7787 36.8833 28.6081 37.2121L29.4435 36.5705Z" fill="black" fill-opacity="0.5" stroke="white" stroke-width="0.0892699"/>
<path d="M37.0401 36.907C36.8301 36.9672 36.4846 37.2679 36.3971 37.4645C36.3534 37.5647 36.3184 37.7371 36.3184 37.8775C36.3184 38.1662 36.4277 38.3828 36.6683 38.5993L36.8345 38.7477L36.8564 40.1433L36.8782 41.5389L37.1844 41.8516C37.3506 42.0281 37.8843 42.5615 38.3654 43.0467C39.2228 43.9049 39.2403 43.9249 39.2665 44.1295C39.3802 45.0157 40.535 45.4288 41.3005 44.8553C41.786 44.4864 41.8604 43.7485 41.4536 43.2753C41.1824 42.9585 40.6181 42.8021 40.1588 42.9063L39.9532 42.9545L39.7302 42.774C39.6033 42.6737 39.1747 42.2968 38.7679 41.9399L38.0374 41.2862L37.9761 40.023C37.9237 38.8761 37.928 38.7557 37.9893 38.7237C38.1511 38.6394 38.3873 38.3547 38.4573 38.1662C38.7416 37.3842 37.9149 36.6504 37.0401 36.907Z" fill="#FFB208"/>
<path d="M34.4468 38.1746C34.2806 38.327 34.25 38.4153 34.2718 38.6559C34.3025 38.9406 34.5605 39.1411 34.8973 39.1411C35.2866 39.1411 35.5797 38.7722 35.4616 38.4233C35.4354 38.3351 35.3435 38.2107 35.2604 38.1426C35.1248 38.0343 35.0723 38.0182 34.858 38.0182C34.6349 38.0182 34.6043 38.0303 34.4468 38.1746Z" fill="#FFB208"/>
<path d="M27.7494 38.7513C27.3951 38.9318 26.9839 39.2606 26.3322 39.8742C25.6848 40.4838 25.313 40.957 24.9806 41.5986C24.3157 42.8859 24.1408 44.3015 24.4776 45.7171C24.6525 46.459 25.0375 47.2571 25.5274 47.8867C25.9123 48.3839 26.6821 49.0977 27.452 49.6792C28.1693 50.2246 28.2918 50.2607 28.025 49.8597C27.7538 49.4466 27.3907 48.2837 27.2376 47.3413C27.0189 45.9698 26.9927 45.6449 26.9971 44.5742C27.0058 43.1265 27.1458 42.0197 27.4957 40.6041C27.6707 39.8983 27.9594 38.992 28.0643 38.8115C28.1125 38.7313 28.1518 38.6551 28.1518 38.6431C28.1518 38.5829 27.9769 38.631 27.7494 38.7513Z" fill="#FFB208"/>
<path d="M34.6268 39.4582C34.5437 39.4983 34.4256 39.5906 34.3731 39.6668C34.2856 39.7831 34.2725 39.8392 34.2856 40.0598C34.3031 40.2964 34.3162 40.3244 34.4781 40.4648C34.723 40.6733 34.9505 40.7054 35.2304 40.5771C35.4929 40.4568 35.6328 40.2683 35.6328 40.0317C35.6328 39.5505 35.0817 39.2336 34.6268 39.4582Z" fill="#FFB208"/>
<path d="M34.6209 41.0641L34.6212 41.0639C34.7781 40.9968 34.9286 40.9795 35.0678 41.0075C35.2069 41.0356 35.338 41.1096 35.4551 41.2303C35.6021 41.3839 35.6509 41.5578 35.6138 41.7691L35.6137 41.77L35.6137 41.77C35.6005 41.8545 35.5833 41.9529 35.575 41.9869L35.5736 41.9929L35.574 41.993C35.5725 42.0083 35.5782 42.022 35.5809 42.0279C35.5845 42.0361 35.5894 42.045 35.595 42.054C35.6063 42.0723 35.6226 42.0954 35.6431 42.1225C35.6842 42.1768 35.7445 42.2503 35.8207 42.3392C35.9733 42.5173 36.1913 42.7594 36.4518 43.0384C36.8384 43.4549 37.0594 43.6899 37.1937 43.816C37.2603 43.8786 37.3088 43.9175 37.3476 43.9379C37.3676 43.9484 37.3872 43.9552 37.407 43.9567C37.4276 43.9583 37.4454 43.954 37.461 43.9468L37.462 43.9464L37.462 43.9464C37.4883 43.9335 37.5288 43.9233 37.5803 43.9173C37.6312 43.9113 37.6899 43.9098 37.7508 43.9128C37.8736 43.9186 38 43.9421 38.085 43.9793L38.0851 43.9793C38.4899 44.1555 38.6041 44.7315 38.2989 45.0416C38.2387 45.1003 38.1417 45.1586 38.0351 45.2024C37.9283 45.2462 37.8173 45.2732 37.7311 45.2732C37.6364 45.2732 37.519 45.2433 37.4123 45.1963C37.3047 45.149 37.2154 45.0876 37.1718 45.0302L37.1715 45.0298C36.9858 44.7907 36.6292 44.4115 35.4885 43.2415C35.1607 42.9048 34.8558 42.5853 34.6287 42.341C34.515 42.2188 34.4211 42.1156 34.3534 42.0386C34.3195 42.0001 34.2925 41.9684 34.273 41.9443C34.2632 41.9322 34.2556 41.9223 34.25 41.9147C34.2472 41.9108 34.2451 41.9077 34.2436 41.9054L34.6209 41.0641ZM34.6209 41.0641C34.5186 41.1071 34.4486 41.1486 34.3934 41.2015C34.3382 41.2543 34.2952 41.321 34.2505 41.4185L34.2505 41.4185M34.6209 41.0641L34.2505 41.4185M34.2505 41.4185C34.1728 41.5873 34.173 41.746 34.2415 41.9021L34.2505 41.4185Z" fill="black" fill-opacity="0.5" stroke="white" stroke-width="0.0892699"/>
<path d="M31.0567 44.9434C31.0829 45.7936 31.1048 46.1184 31.1485 46.1786C31.2185 46.2748 31.7784 46.8563 32.8894 47.9712C33.375 48.4604 33.7468 48.8053 33.7949 48.8053C33.8649 48.8053 33.8736 48.7291 33.8999 47.8509C33.913 47.3295 33.9349 46.7962 33.948 46.6678L33.9698 46.4352L33.6987 46.1666C32.8676 45.3405 31.1792 43.7925 31.1092 43.7925C31.0304 43.7925 31.0261 43.8406 31.0567 44.9434Z" fill="#FFB208"/>
<path d="M87.4659 19.0876C88.4419 19.0876 89.2979 19.2956 90.0339 19.7116C90.7859 20.1116 91.3619 20.6796 91.7619 21.4156C92.1779 22.1516 92.3859 22.9996 92.3859 23.9596C92.3859 24.9196 92.1779 25.7596 91.7619 26.4796C91.3459 27.1996 90.7539 27.7596 89.9859 28.1596C89.2339 28.5596 88.3619 28.7596 87.3699 28.7596H83.1459C83.0819 28.7596 83.0499 28.7916 83.0499 28.8556V35.6716C83.0499 35.8316 82.9699 35.9116 82.8099 35.9116H80.9859C80.8259 35.9116 80.7459 35.8316 80.7459 35.6716V19.3276C80.7459 19.1676 80.8259 19.0876 80.9859 19.0876H87.4659ZM87.1539 26.8876C88.0339 26.8876 88.7379 26.6236 89.2659 26.0956C89.8099 25.5676 90.0819 24.8716 90.0819 24.0076C90.0819 23.1276 89.8099 22.4236 89.2659 21.8956C88.7379 21.3516 88.0339 21.0796 87.1539 21.0796H83.1459C83.0819 21.0796 83.0499 21.1116 83.0499 21.1756V26.7916C83.0499 26.8556 83.0819 26.8876 83.1459 26.8876H87.1539ZM100.276 23.5276C101.588 23.5276 102.628 23.9116 103.396 24.6796C104.164 25.4316 104.548 26.4556 104.548 27.7516V35.6716C104.548 35.8316 104.468 35.9116 104.308 35.9116H102.484C102.324 35.9116 102.244 35.8316 102.244 35.6716V28.2076C102.244 27.4076 102.012 26.7596 101.548 26.2636C101.084 25.7676 100.468 25.5196 99.7004 25.5196C98.9484 25.5196 98.3324 25.7676 97.8524 26.2636C97.3724 26.7596 97.1324 27.3996 97.1324 28.1836V35.6716C97.1324 35.8316 97.0524 35.9116 96.8924 35.9116H95.0684C94.9084 35.9116 94.8284 35.8316 94.8284 35.6716V19.3516C94.8284 19.1916 94.9084 19.1116 95.0684 19.1116H96.8924C97.0524 19.1116 97.1324 19.1916 97.1324 19.3516V24.7996C97.1324 24.8316 97.1404 24.8556 97.1564 24.8716C97.1884 24.8876 97.2124 24.8796 97.2284 24.8476C97.9164 23.9676 98.9324 23.5276 100.276 23.5276ZM112.688 36.1036C111.504 36.1036 110.472 35.8076 109.592 35.2156C108.712 34.6076 108.096 33.7676 107.744 32.6956C107.456 31.8316 107.312 30.8556 107.312 29.7676C107.312 28.6316 107.448 27.6716 107.72 26.8876C108.072 25.8316 108.688 25.0076 109.568 24.4156C110.448 23.8076 111.496 23.5036 112.712 23.5036C113.864 23.5036 114.864 23.8076 115.712 24.4156C116.576 25.0076 117.192 25.8236 117.56 26.8636C117.848 27.6796 117.992 28.6396 117.992 29.7436C117.992 30.8636 117.848 31.8476 117.56 32.6956C117.208 33.7676 116.6 34.6076 115.736 35.2156C114.872 35.8076 113.856 36.1036 112.688 36.1036ZM112.688 34.1116C113.328 34.1116 113.888 33.9356 114.368 33.5836C114.848 33.2156 115.192 32.7036 115.4 32.0476C115.576 31.4396 115.664 30.6876 115.664 29.7916C115.664 28.8956 115.584 28.1516 115.424 27.5596C115.216 26.9036 114.872 26.3996 114.392 26.0476C113.912 25.6796 113.328 25.4956 112.64 25.4956C111.984 25.4956 111.416 25.6796 110.936 26.0476C110.456 26.3996 110.112 26.9036 109.904 27.5596C109.728 28.1196 109.64 28.8636 109.64 29.7916C109.64 30.7196 109.728 31.4716 109.904 32.0476C110.096 32.7036 110.432 33.2156 110.912 33.5836C111.408 33.9356 112 34.1116 112.688 34.1116ZM130.896 28.2796C130.96 28.9356 130.984 29.6716 130.968 30.4876C130.968 30.6476 130.888 30.7276 130.728 30.7276H123.072C123.008 30.7276 122.976 30.7596 122.976 30.8236C122.976 31.3676 123.024 31.7836 123.12 32.0716C123.296 32.7116 123.648 33.2156 124.176 33.5836C124.72 33.9356 125.4 34.1116 126.216 34.1116C127.4 34.1116 128.312 33.6236 128.952 32.6476C129.032 32.4876 129.136 32.4636 129.264 32.5756L130.632 33.4876C130.744 33.5836 130.768 33.6876 130.704 33.7996C130.256 34.5196 129.616 35.0876 128.784 35.5036C127.968 35.9196 127.04 36.1276 126 36.1276C124.832 36.1276 123.848 35.8716 123.048 35.3596C122.248 34.8476 121.648 34.1196 121.248 33.1756C120.864 32.2316 120.672 31.0876 120.672 29.7436C120.672 28.5756 120.76 27.6876 120.936 27.0796C121.224 25.9756 121.8 25.1036 122.664 24.4636C123.528 23.8236 124.576 23.5036 125.808 23.5036C127.424 23.5036 128.632 23.9116 129.432 24.7276C130.232 25.5276 130.72 26.7116 130.896 28.2796ZM125.808 25.4956C125.12 25.4956 124.552 25.6716 124.104 26.0236C123.656 26.3596 123.352 26.8156 123.192 27.3916C123.08 27.7436 123.008 28.1916 122.976 28.7356C122.976 28.7996 123.008 28.8316 123.072 28.8316H128.568C128.632 28.8316 128.664 28.7996 128.664 28.7356C128.632 28.2076 128.584 27.8156 128.52 27.5596C128.36 26.9356 128.04 26.4396 127.56 26.0716C127.096 25.6876 126.512 25.4956 125.808 25.4956ZM139.323 23.5276C140.635 23.5276 141.675 23.9116 142.443 24.6796C143.211 25.4316 143.595 26.4556 143.595 27.7516V35.6716C143.595 35.8316 143.515 35.9116 143.355 35.9116H141.531C141.371 35.9116 141.291 35.8316 141.291 35.6716V28.2076C141.291 27.4076 141.059 26.7596 140.595 26.2636C140.131 25.7676 139.515 25.5196 138.747 25.5196C137.995 25.5196 137.379 25.7676 136.899 26.2636C136.419 26.7596 136.179 27.3996 136.179 28.1836V35.6716C136.179 35.8316 136.099 35.9116 135.939 35.9116H134.115C133.955 35.9116 133.875 35.8316 133.875 35.6716V23.9356C133.875 23.7756 133.955 23.6956 134.115 23.6956H135.939C136.099 23.6956 136.179 23.7756 136.179 23.9356V24.7996C136.179 24.8316 136.187 24.8556 136.203 24.8716C136.235 24.8876 136.259 24.8796 136.275 24.8476C136.963 23.9676 137.979 23.5276 139.323 23.5276ZM148.275 21.7756C147.827 21.7756 147.459 21.6316 147.171 21.3436C146.883 21.0556 146.739 20.6876 146.739 20.2396C146.739 19.7916 146.883 19.4236 147.171 19.1356C147.459 18.8476 147.827 18.7036 148.275 18.7036C148.723 18.7036 149.091 18.8476 149.379 19.1356C149.667 19.4236 149.811 19.7916 149.811 20.2396C149.811 20.6876 149.667 21.0556 149.379 21.3436C149.091 21.6316 148.723 21.7756 148.275 21.7756ZM147.315 35.8876C147.155 35.8876 147.075 35.8076 147.075 35.6476V23.9356C147.075 23.7756 147.155 23.6956 147.315 23.6956H149.139C149.299 23.6956 149.379 23.7756 149.379 23.9356V35.6476C149.379 35.8076 149.299 35.8876 149.139 35.8876H147.315ZM152.136 35.9116C152.04 35.9116 151.976 35.8876 151.944 35.8396C151.912 35.7756 151.92 35.7036 151.968 35.6236L155.952 29.8876C155.984 29.8396 155.984 29.7916 155.952 29.7436L151.968 23.9836L151.92 23.8636C151.92 23.7516 151.992 23.6956 152.136 23.6956H154.08C154.208 23.6956 154.304 23.7436 154.368 23.8396L157.176 27.9436C157.192 27.9596 157.216 27.9676 157.248 27.9676C157.28 27.9676 157.304 27.9596 157.32 27.9436L160.104 23.8396C160.168 23.7436 160.264 23.6956 160.392 23.6956H162.48C162.576 23.6956 162.64 23.7276 162.672 23.7916C162.704 23.8396 162.696 23.9036 162.648 23.9836L158.664 29.7436C158.648 29.7916 158.648 29.8396 158.664 29.8876L162.648 35.6236L162.696 35.7436C162.696 35.8556 162.624 35.9116 162.48 35.9116H160.512C160.384 35.9116 160.288 35.8636 160.224 35.7676L157.44 31.6636C157.424 31.6316 157.4 31.6156 157.368 31.6156C157.336 31.6156 157.312 31.6316 157.296 31.6636L154.488 35.7676C154.424 35.8636 154.328 35.9116 154.2 35.9116H152.136Z" fill="#FFB208"/>
</svg>
